<?xml version="1.0" encoding="utf-8"?>
<!-- Generator: Adobe Illustrator 21.0.0, SVG Export Plug-In . SVG Version: 6.00 Build 0)  -->
<svg version="1.1" id="Layer_1" xmlns="http://www.w3.org/2000/svg" xmlns:xlink="http://www.w3.org/1999/xlink" x="0px" y="0px"
	 viewBox="0 0 24 24" style="enable-background:new 0 0 24 24;" xml:space="preserve">
<style type="text/css">
	.st0{fill:#B1C1C8;}
</style>
<path class="st0" d="M17.3,4L6.8,4C5.4,4,4.3,5.1,4.3,6.5l0,1l-0.1,10c0,1.4,1.1,2.5,2.5,2.5l2.7,0l7.8,0c1.4,0,2.5-1.1,2.5-2.5
	l0.1-10l0-1C19.8,5.2,18.6,4,17.3,4z M8.4,19l-1.7,0c-0.8,0-1.5-0.7-1.5-1.5l0.1-10l3.2,0L8.4,19z M18.7,17.5c0,0.8-0.7,1.5-1.5,1.5
	l-7.8,0L9.5,7.5l9.3,0L18.7,17.5z M9.5,6.5l-4.2,0C5.3,5.6,6,5,6.8,5L17.3,5c0.8,0,1.5,0.7,1.5,1.5L9.5,6.5z"/>
</svg>
