<?xml version="1.0" encoding="utf-8"?>
<!-- Generator: Adobe Illustrator 21.0.0, SVG Export Plug-In . SVG Version: 6.00 Build 0)  -->
<svg version="1.1" id="Layer_1" xmlns="http://www.w3.org/2000/svg" xmlns:xlink="http://www.w3.org/1999/xlink" x="0px" y="0px"
	 viewBox="0 0 80 24" style="enable-background:new 0 0 80 24;" xml:space="preserve">
<style type="text/css">
	.st0{fill:#E9B02A;}
	.st1{fill:#36C4ED;}
	.st2{fill:#DF205B;}
	.st3{fill:#32B67F;}
	.st4{fill:#01111C;}
</style>
<g>
	<g>
		<g>
			<path class="st0" d="M7.7,19.4c-4.9-2.2-7-7.9-4.8-12.8s7.9-7,12.8-4.8l-1,2.3C11,2.4,6.7,4,5.1,7.6s0,7.9,3.6,9.5L7.7,19.4z"/>
		</g>
		<g>
			<path class="st1" d="M9.7,14.8C7.4,13.8,6.4,11,7.4,8.7c1.1-2.3,3.8-3.4,6.1-2.3l-1,2.3c-1.1-0.5-2.4,0-2.9,1.1
				c-0.4,0.8-0.2,1.8,0.4,2.4c0.4,0.4,0.4,0.9,0.2,1.3L9.7,14.8z"/>
		</g>
		<g>
			<g>
				<path class="st2" d="M7.9,22.2L9,20c3.6,1.6,7.9,0,9.5-3.6c1.6-3.6,0-7.9-3.6-9.5l1-2.3c4.8,2.2,7,7.9,4.8,12.8
					C18.5,22.2,12.8,24.4,7.9,22.2z"/>
			</g>
		</g>
		<g>
			<g>
				<path class="st3" d="M10,17.7l1-2.3c1.1,0.5,2.4,0,2.9-1.1c0.4-0.8,0.2-1.8-0.4-2.4c-0.4-0.4-0.4-0.9-0.2-1.3l0.6-1.4
					c2.3,1.1,3.4,3.8,2.3,6.1C15.1,17.7,12.3,18.7,10,17.7z"/>
			</g>
		</g>
	</g>
	<g>
		<path class="st4" d="M39.3,11.1c0-0.1,0-0.3-0.1-0.4c-0.1-0.1-0.2-0.3-0.3-0.4c-0.1-0.1-0.3-0.2-0.5-0.3c-0.2-0.1-0.4-0.1-0.7-0.1
			c-0.2,0-0.4,0-0.6,0.1C37,10,36.8,10,36.7,10.1c-0.1,0.1-0.2,0.2-0.3,0.3c-0.1,0.1-0.1,0.3-0.1,0.4c0,0.2,0.1,0.4,0.2,0.4
			c0.1,0.1,0.3,0.2,0.6,0.2l2,0.5c0.4,0.1,0.7,0.2,1.1,0.3c0.3,0.1,0.6,0.3,0.9,0.5c0.3,0.2,0.5,0.5,0.6,0.8
			c0.1,0.3,0.2,0.7,0.2,1.1c0,0.5-0.1,0.9-0.3,1.3c-0.2,0.4-0.5,0.7-0.9,0.9c-0.4,0.2-0.8,0.4-1.3,0.6s-1,0.2-1.6,0.2
			c-0.6,0-1.1-0.1-1.6-0.2c-0.5-0.2-0.9-0.4-1.3-0.6c-0.4-0.3-0.6-0.6-0.8-1c-0.2-0.4-0.3-0.8-0.3-1.3h2.2c0,0.1,0,0.3,0.2,0.4
			c0.1,0.1,0.2,0.3,0.4,0.4c0.2,0.1,0.4,0.2,0.6,0.3c0.2,0.1,0.5,0.1,0.7,0.1c0.5,0,0.9-0.1,1.3-0.3c0.3-0.2,0.5-0.4,0.5-0.8
			c0-0.2-0.1-0.4-0.2-0.5c-0.2-0.1-0.4-0.2-0.7-0.3l-1.9-0.5c-0.4-0.1-0.7-0.2-1-0.4c-0.3-0.1-0.6-0.3-0.8-0.6
			c-0.2-0.2-0.4-0.5-0.6-0.8c-0.1-0.3-0.2-0.6-0.2-1c0-0.5,0.1-0.9,0.3-1.3S34.7,9,35,8.7c0.3-0.2,0.8-0.4,1.2-0.6s1-0.2,1.5-0.2
			s1,0.1,1.5,0.2c0.5,0.2,0.8,0.4,1.2,0.7c0.3,0.3,0.6,0.6,0.8,1c0.2,0.4,0.3,0.8,0.3,1.2H39.3z"/>
		<path class="st4" d="M43.2,6.4c0-0.3,0.1-0.6,0.4-0.9c0.2-0.2,0.5-0.4,0.9-0.4s0.6,0.1,0.9,0.4c0.2,0.2,0.4,0.5,0.4,0.9
			c0,0.3-0.1,0.6-0.4,0.9c-0.2,0.2-0.5,0.4-0.9,0.4s-0.6-0.1-0.9-0.4C43.3,7.1,43.2,6.8,43.2,6.4z M45.6,8.2v9.2h-2.2V8.2H45.6z"/>
		<path class="st4" d="M47.5,17.4V8.2h2v1.3h0c0.2-0.4,0.6-0.8,1.1-1.1C51.1,8.1,51.7,8,52.4,8c0.5,0,1,0.1,1.4,0.3
			c0.4,0.2,0.8,0.5,1.1,0.8c0.3,0.3,0.6,0.8,0.7,1.2c0.2,0.5,0.3,1,0.3,1.6v5.5h-2.2v-5.3c0-0.3-0.1-0.5-0.2-0.8
			c-0.1-0.2-0.3-0.5-0.4-0.6s-0.4-0.3-0.6-0.4c-0.2-0.1-0.5-0.2-0.8-0.2c-0.3,0-0.5,0.1-0.8,0.2c-0.2,0.1-0.5,0.3-0.6,0.4
			s-0.3,0.4-0.4,0.6c-0.1,0.2-0.2,0.5-0.2,0.8v5.3H47.5z"/>
		<path class="st4" d="M65.3,16.1L65.3,16.1c-0.2,0.2-0.4,0.4-0.6,0.6c-0.2,0.2-0.4,0.4-0.7,0.5c-0.3,0.1-0.5,0.3-0.8,0.4
			c-0.3,0.1-0.6,0.1-1,0.1c-0.6,0-1.2-0.1-1.8-0.4c-0.6-0.2-1-0.6-1.5-1c-0.4-0.4-0.7-1-1-1.5c-0.2-0.6-0.4-1.2-0.4-1.9
			c0-0.7,0.1-1.3,0.4-1.9c0.2-0.6,0.6-1.1,1-1.5c0.4-0.4,0.9-0.8,1.5-1C60.9,8.1,61.5,8,62.2,8c0.4,0,0.7,0,1,0.1
			c0.3,0.1,0.6,0.2,0.8,0.3c0.3,0.1,0.5,0.3,0.7,0.5c0.2,0.2,0.4,0.4,0.5,0.6h0V8.2h2.2v9.2h-2.2V16.1z M65.3,12.8
			c0-0.4-0.1-0.7-0.2-1c-0.1-0.3-0.3-0.6-0.6-0.9c-0.2-0.2-0.5-0.4-0.9-0.6c-0.3-0.1-0.7-0.2-1.1-0.2c-0.4,0-0.7,0.1-1,0.2
			c-0.3,0.1-0.6,0.3-0.9,0.6c-0.2,0.2-0.4,0.5-0.6,0.9c-0.1,0.3-0.2,0.7-0.2,1c0,0.4,0.1,0.7,0.2,1.1c0.1,0.3,0.3,0.6,0.6,0.9
			c0.2,0.2,0.5,0.4,0.9,0.6s0.7,0.2,1,0.2c0.4,0,0.7-0.1,1.1-0.2c0.3-0.1,0.6-0.3,0.9-0.6c0.2-0.2,0.4-0.5,0.6-0.9
			C65.2,13.5,65.3,13.2,65.3,12.8z"/>
		<path class="st4" d="M77.8,8.2v9.2h-2v-1.3h0c-0.2,0.4-0.6,0.8-1.1,1.1c-0.5,0.3-1.1,0.5-1.8,0.5c-0.5,0-1-0.1-1.4-0.3
			c-0.4-0.2-0.8-0.5-1.1-0.8c-0.3-0.3-0.6-0.8-0.7-1.2c-0.2-0.5-0.3-1-0.3-1.6V8.2h2.2v5.3c0,0.3,0.1,0.5,0.2,0.8
			c0.1,0.2,0.2,0.5,0.4,0.6c0.2,0.2,0.4,0.3,0.6,0.4c0.2,0.1,0.5,0.2,0.8,0.2c0.3,0,0.5-0.1,0.8-0.2c0.2-0.1,0.5-0.3,0.6-0.4
			s0.3-0.4,0.4-0.6c0.1-0.2,0.2-0.5,0.2-0.8V8.2H77.8z"/>
	</g>
</g>
</svg>
