<?xml version="1.0" encoding="utf-8"?>
<!-- Generator: Adobe Illustrator 21.0.0, SVG Export Plug-In . SVG Version: 6.00 Build 0)  -->
<svg version="1.1" id="Layer_1" xmlns="http://www.w3.org/2000/svg" xmlns:xlink="http://www.w3.org/1999/xlink" x="0px" y="0px"
	 viewBox="0 0 24 24" style="enable-background:new 0 0 24 24;" xml:space="preserve">
<style type="text/css">
	.st0{fill:#B1C1C8;}
</style>
<g>
	<g>
		<g>
			<path class="st0" d="M23,7.9l-9.4-4.6c-0.8-0.4-2.2-0.4-3,0L1,7.9c-0.7,0.3-0.8,0.8-0.8,1S0.3,9.6,1,10l0.8,0.4v4.3
				c-0.5,0.2-0.8,0.7-0.8,1.2s0.4,1,0.8,1.2L0.5,21h3.4l-1.2-3.9c0.5-0.2,0.8-0.7,0.8-1.2c0-0.6-0.4-1-0.8-1.2v-3.9l1.4,0.7v5.6
				c0,0.1,0,0.2,0.1,0.2C4.3,17.6,6.8,21,12,21s7.7-3.5,7.8-3.6c0.1-0.1,0.1-0.2,0.1-0.2v-5.6L23,10c0.7-0.3,0.8-0.8,0.8-1
				C23.8,8.7,23.7,8.2,23,7.9z M19,17c-0.4,0.5-2.8,3.1-7,3.1S5.4,17.6,5,17v-5.1l5.6,2.7c0.4,0.2,0.9,0.3,1.5,0.3
				c0.6,0,1.1-0.1,1.5-0.3l5.4-2.6V17z M22.7,9.2l-3.3,1.6c-0.1,0-0.2,0.1-0.3,0.2l-5.9,2.8c-0.6,0.3-1.7,0.3-2.3,0l-7.2-3.5l8.3-1
				c0.2,0,0.4-0.2,0.4-0.5c0-0.2-0.2-0.4-0.5-0.4L2.3,9.7l-1-0.5C1.1,9.1,1,9,1,9c0,0,0.1-0.1,0.3-0.2L11,4.1
				c0.3-0.1,0.7-0.2,1.1-0.2c0.4,0,0.9,0.1,1.1,0.2l9.4,4.6C22.9,8.8,23,8.9,23,9C23,9,22.9,9.1,22.7,9.2z"/>
		</g>
	</g>
</g>
</svg>
