<?xml version="1.0" encoding="utf-8"?>
<!-- Generator: Adobe Illustrator 21.0.0, SVG Export Plug-In . SVG Version: 6.00 Build 0)  -->
<svg version="1.1" id="Layer_1" xmlns="http://www.w3.org/2000/svg" xmlns:xlink="http://www.w3.org/1999/xlink" x="0px" y="0px"
	 viewBox="0 0 24 24" style="enable-background:new 0 0 24 24;" xml:space="preserve">
<style type="text/css">
	.st0{fill:#B1C1C8;}
</style>
<path class="st0" d="M19.7,19c0-0.1,0-0.1,0-0.2l0-0.2c-0.1-4.7-0.8-6.2-5.5-7l-0.1,0c1.3-0.9,2.3-2.5,2.3-4.5C16.3,4.8,15.8,2,12,2
	S7.7,4.8,7.7,7.1c0,1.9,0.9,3.6,2.3,4.5l-0.1,0c-4.7,0.9-5.4,2.3-5.5,6.9c0,0,0,0,0,0.1l0,0l0,0.3v0.6l0.1,0.1
	C4.5,19.8,5.7,22,12,22s7.5-2.2,7.7-2.4L19.7,19L19.7,19C19.7,19,19.7,19,19.7,19L19.7,19L19.7,19z M8.7,7.1C8.7,4.6,9.2,3,12,3
	s3.3,1.6,3.3,4.1c0,2.3-1.5,4.1-3.3,4.1S8.7,9.4,8.7,7.1z M12,12.3c0.6,0,1.1-0.1,1.6-0.4c-0.2,0.2-0.7,0.5-1.6,0.5
	c-1,0-1.5-0.4-1.6-0.5C10.9,12.2,11.4,12.3,12,12.3z M4.6,18.9l-0.2,0L4.6,18.9L4.6,18.9z M18.7,19.2C18.4,19.6,17,21,12,21
	c-5,0-6.4-1.4-6.7-1.8v-0.3h0c0,0,0,0,0,0l0,0l0-0.1c0-0.1,0-0.2,0-0.2c0.1-4,0.5-5.1,4.5-5.9c0.3,0.3,1.1,0.8,2.3,0.8
	s1.9-0.5,2.3-0.8c4,0.8,4.4,1.9,4.5,6v0c0,0.1,0,0.1,0,0.2l0,0c0,0,0,0.1,0,0.1l0,0c0,0,0,0,0,0L18.7,19.2z"/>
</svg>
