<?xml version="1.0" encoding="utf-8"?>
<!-- Generator: Adobe Illustrator 21.0.0, SVG Export Plug-In . SVG Version: 6.00 Build 0)  -->
<svg version="1.1" id="Layer_1" xmlns="http://www.w3.org/2000/svg" xmlns:xlink="http://www.w3.org/1999/xlink" x="0px" y="0px"
	 viewBox="0 0 24 24" style="enable-background:new 0 0 24 24;" xml:space="preserve">
<style type="text/css">
	.st0{fill:#B1C1C8;}
</style>
<g>
	<g>
		<path class="st0" d="M17.2,20H6.8c-1.4,0-2.5-1.1-2.5-2.5v-11C4.3,5.1,5.4,4,6.8,4h10.4c1.4,0,2.5,1.1,2.5,2.5v11
			C19.7,18.9,18.6,20,17.2,20z M6.8,5C6,5,5.3,5.7,5.3,6.5v11C5.3,18.3,6,19,6.8,19h10.4c0.8,0,1.5-0.7,1.5-1.5v-11
			C18.7,5.7,18,5,17.2,5H6.8z"/>
	</g>
	<g>
		<path class="st0" d="M19.7,10.5H4.3v-4C4.3,5.1,5.4,4,6.8,4h10.4c1.4,0,2.5,1.1,2.5,2.5V10.5z M5.3,9.5h13.4v-3
			C18.7,5.7,18,5,17.2,5H6.8C6,5,5.3,5.7,5.3,6.5V9.5z"/>
	</g>
</g>
</svg>
